PathFileType	4	(X/Y/Z)	Patient4_TMGait_0pt6_01_left_17.trc.trc
DataRate	CameraRate	NumFrames	NumMarkers	Units	OrigDataRate	OrigDataStartFrame	OrigNumFrames
83.832335329341	83.832335329341	5	33	mm	83.832335329341	18	       141
Frame#	Time	Sacral			L.Shoulder			Chest			R.Shoulder			Neck			R.ASIS			L.ASIS			R.Thigh.Superior			R.Thigh.Lateral			R.Thigh.Inferior			R.Patella			L.Thigh.Superior			L.Thigh.Lateral			L.Thigh.Inferior			L.Patella			L.Shank.Superior			L.Shank.Lateral			L.Shank.Inferior			R.Shank.Superior			R.Shank.Lateral			R.Shank.Inferior			R.Heel			R.Midfoot.Superior			R.Midfoot.Lateral			R.Toe			L.Heel			L.Midfoot.Lateral			L.Midfoot.Superior			L.Toe			L.Elbow			L.Wrist			R.Elbow			R.Wrist			
		X1	Y1	Z1	X2	Y2	Z2	X3	Y3	Z3	X4	Y4	Z4	X5	Y5	Z5	X6	Y6	Z6	X7	Y7	Z7	X8	Y8	Z8	X9	Y9	Z9	X10	Y10	Z10	X11	Y11	Z11	X12	Y12	Z12	X13	Y13	Z13	X14	Y14	Z14	X15	Y15	Z15	X16	Y16	Z16	X17	Y17	Z17	X18	Y18	Z18	X19	Y19	Z19	X20	Y20	Z20	X21	Y21	Z21	X22	Y22	Z22	X23	Y23	Z23	X24	Y24	Z24	X25	Y25	Z25	X26	Y26	Z26	X27	Y27	Z27	X28	Y28	Z28	X29	Y29	Z29	X30	Y30	Z30	X31	Y31	Z31	X32	Y32	Z32	X33	Y33	Z33	

18	20.892785714286	633.133424751736	1007.602919200500	520.095403741716	791.711144339190	1430.664317326080	322.268427621912	909.198279162798	1361.823299655208	473.430829236427	844.273109872779	1437.585154050613	652.757058670600	786.844893889154	1491.992365630742	476.365995687925	863.705905430491	937.489876756867	619.581931131270	832.858728135486	959.213660837463	346.208046559901	867.009864571033	724.325611538525	587.035598855381	768.002351153330	628.148573827089	649.068758805243	826.636014786052	566.397932308242	564.592561811293	809.648255181674	481.553870257364	567.205300206503	914.232957743474	780.994484027654	385.685664301560	878.362579936432	652.761409777605	305.118688829118	977.438815646304	597.437991170460	376.426432637090	1008.651870302233	532.998891514754	372.959976422913	993.597732282459	459.059890098562	362.778356317891	932.642893742784	327.247056281131	310.172509433900	1018.157624391002	230.705955345011	371.571417573573	773.741926997185	395.409739464324	572.896646578184	693.738893774611	297.858119840464	633.218520161394	722.195536885566	201.440113779873	566.169935716674	572.845644741786	43.287273046403	534.385323309322	744.804132865506	95.961489835278	571.257605472956	655.178752396568	36.454253736496	609.128389358022	863.844794605913	41.085983864930	601.375215528411	936.314430429579	49.250359757261	411.113415868226	1012.899367339049	53.396027204622	333.595244504154	1080.445135667625	133.908737827788	353.518095105296	1215.732137968730	108.061433022884	333.887215090944	685.409420930229	1084.894383925875	238.184794468239	667.457866445284	827.042184982147	246.374721315039	969.555434473919	1120.977265294558	773.469104624071	1219.808971781841	1143.460148574322	736.425312683577	
19	20.904714285714	634.138348767137	1006.609427299822	519.124843524716	791.145283728158	1429.907219887965	321.470202830823	909.016590222636	1361.323813804491	472.395848599025	844.111651495533	1436.848108736935	651.782783840386	786.212334494648	1491.078642753151	475.527059387942	864.603102445982	936.532874224313	618.698348501396	833.939137746301	958.207426691293	345.252753746243	865.922659932939	722.861852689405	586.381082888473	765.822389067936	627.418588574449	648.479204810921	823.887647512600	565.040746535237	564.161268451260	806.014372778594	480.285677713052	566.689190145873	915.558358851008	779.764637586885	385.094482459506	877.907420227118	650.879020366566	305.632144173329	977.409573553673	595.563465041727	375.811907603735	1007.474671124053	530.460349155366	372.983008047069	991.837377448920	456.241211166610	363.057880824269	929.122282260268	325.091621212600	311.365528027094	1013.796427811444	227.893394700301	372.669058556400	769.341497206582	394.491558876502	572.519332885945	688.510748548034	297.695591122302	633.040898535379	715.991307018268	200.968208581220	566.029237287239	565.599094334880	43.265793357102	534.416080880378	737.607983661485	95.901931680633	571.267776531450	647.920424010867	36.393939323202	609.137829039447	856.581901865070	41.050207023870	601.401646425154	930.252529610843	47.862454432715	413.235095224251	1006.201147821710	51.199587573074	335.081340904556	1074.880959441357	130.573807166052	354.609462815580	1209.556286122918	102.994246345311	333.863968181189	683.916560679509	1084.796873440408	237.341258272942	663.701601688223	827.152587959942	244.980248305490	972.425868644522	1121.539684201013	771.518783707689	1221.868944733566	1148.947105078159	734.459154548186	
20	20.916642857143	635.329922045119	1005.467926698071	517.968466869467	790.604720039218	1428.966411861610	320.530627687862	908.846447787966	1360.768221988330	471.279131784341	843.821778506280	1436.010978733988	650.711688963902	785.521827197185	1490.022340237122	474.566160543657	865.655567486639	935.458195924472	617.827817469008	835.356692478322	957.046957919167	344.320563045897	865.062049991296	721.289468304997	585.751740893760	763.826806237626	626.596717846665	647.826191304310	821.385113508364	563.574274349389	563.700947568224	802.603622582535	478.870336654995	566.094287602430	917.257128409318	778.240866391140	384.416130635430	877.468050104291	648.741037294444	306.211699464163	977.486628313195	593.364478599062	375.181009872643	1006.133692334481	527.372629955731	373.103789153350	989.650958274301	452.848002299511	363.465945740065	924.707289454322	322.671519070201	312.410659867603	1007.928022987039	224.410165066211	373.807109433665	765.120450282627	393.458763486515	572.063241950634	683.420863583700	297.494878683564	632.828701120154	709.845878801655	200.443234539712	565.852383990558	558.350538064040	43.243143083792	534.455338067851	730.394746398946	95.825687287595	571.251172257841	640.664566347207	36.336734176670	609.152125615788	849.317988771935	40.991233113160	601.435780305214	921.681577149662	46.287270526019	414.861723001435	997.254088905991	48.622393788315	336.294172707382	1067.409840953442	126.377642287178	355.877065217553	1201.417374557484	96.381761550708	334.349265114314	683.010565784193	1084.330146905771	236.227273933356	661.048778054852	826.866063372518	243.230909531980	974.603893815651	1121.749818337916	769.665044436058	1223.273148826268	1153.342320940739	732.627650848019	
21	20.928571428571	636.678280389492	1004.196971722924	516.637004804163	790.129319033080	1427.849361092089	319.449169775299	908.710983040388	1360.155321169483	470.091346450823	843.422080726645	1435.069654337840	649.558474984706	784.812805482858	1488.839296980696	473.491005901473	866.854784114877	934.264404871664	616.970991904755	837.071639806401	955.758364034656	343.418966207131	864.476027281097	719.626637757099	585.143245613460	762.080222252092	625.682761140585	647.087252396829	819.206083185322	562.009066792210	563.189041170803	799.499059241493	477.295694697205	565.394067208941	919.181947129801	776.369606970582	383.646706264773	876.993611867836	646.394044310943	306.779039858684	977.544860326734	590.845587827540	374.585895001184	1004.567723957200	523.833188653881	373.348023966598	987.088832717665	449.025584709224	363.993043524562	919.694042505631	320.022240307447	313.282277673520	1000.992490130082	220.450695597106	374.992830045699	761.141685491098	392.307054227677	571.502036594430	678.520337523956	297.271341798982	632.567056264145	703.790151159520	199.878940369140	565.628988542704	551.106626492426	43.263540402802	534.508045585737	723.179636722168	95.742384303038	571.209568196059	633.421601244830	36.306690713301	609.173642062018	842.063388996408	40.890810846653	601.481315358409	911.319559860799	44.589681260862	415.986402802682	986.794300412201	45.851207090785	337.246211497132	1058.625000692798	121.612164750612	357.356516099071	1191.956867993119	88.735638709192	335.419420735479	682.666504822215	1083.500526220408	234.849916900686	659.506701175205	826.179918127518	241.137030442656	976.085865034598	1121.549879752591	767.924018653100	1224.063442782031	1156.617735722768	730.942388759779	
22	20.940500000000	638.141549871575	1002.834974083432	515.150928008485	789.757753812146	1426.586415777023	318.231366652875	908.633506211907	1359.499908317802	468.845449954713	842.941380867116	1434.040489716234	648.340311525592	784.130679768884	1487.567870715563	472.310442255342	868.183749862433	932.967678387111	616.116206387744	839.017755438671	954.396073254649	342.545297938978	864.202966198865	717.911123266135	584.532579382437	760.650940386835	624.690192836749	646.236797057324	817.431373839452	560.371233707454	562.598547865263	796.793306350880	475.561066325199	564.568708103400	921.180865138393	774.159060063080	382.784497121823	876.460575951679	643.927577208980	307.253768795551	977.486680828904	588.075186292359	374.070569297185	1002.772355596329	520.007895464336	373.711545304555	984.251784303485	444.971431423585	364.603082927795	914.398899914653	317.233939857313	313.977054112485	993.465027160926	216.261280591998	376.217929060918	757.473532317110	391.049382544368	570.819722275829	673.859744788344	297.057294012636	632.243670004890	697.860295084447	199.304982262901	565.356200093009	543.877324081674	43.393447169135	534.579653230991	715.988134742222	95.668544466595	571.151509340033	626.204014210868	36.337294709726	609.205338504411	834.829229038125	40.731613312422	601.541051698735	899.932759614586	42.871676944165	416.673114325951	975.552139645255	43.106101452494	337.970717566853	1049.121446614490	116.624668123546	359.034895300927	1181.803589207090	80.638834449446	337.010605922889	682.874396925755	1082.336506719708	233.223832126645	659.080541254909	825.115247008877	238.717741814067	976.870322448085	1120.902561451110	766.303570202035	1224.279415997951	1158.741552576206	729.410305243005	
